<svg xmlns="http://www.w3.org/2000/svg" width="1115.645" height="178.345" viewBox="0 0 1115.645 178.345">
  <g id="Group_593" data-name="Group 593" transform="translate(-403.261 -1053.5)">
    <path id="Path_2803" data-name="Path 2803" d="M2664,1409s538.563,35.8,543.3,103.683" transform="translate(-2256 -350.5)" fill="none" stroke="#ffebae" stroke-linecap="round" stroke-width="8" stroke-dasharray="10 10"/>
    <path id="Path_2804" data-name="Path 2804" d="M3207.3,1409s-538.563,35.8-543.3,103.683" transform="translate(-1692.65 -350.5)" fill="none" stroke="#ffebae" stroke-linecap="round" stroke-width="8" stroke-dasharray="10 10"/>
    <line id="Line_2" data-name="Line 2" y2="95" transform="translate(960.5 1058.5)" fill="none" stroke="#2986ff" stroke-linecap="round" stroke-width="10" stroke-dasharray="10 10"/>
    <circle id="Ellipse_106" data-name="Ellipse 106" cx="19.5" cy="19.5" r="19.5" transform="translate(940 1132)" fill="#2986ff"/>
    <path id="Path_2805" data-name="Path 2805" d="M2664,1577.8s509.362-107.344,542.512-55.251" transform="translate(-2256 -359)" fill="none" stroke="#2986ff" stroke-linecap="round" stroke-width="8" stroke-dasharray="10 10"/>
    <path id="Path_2806" data-name="Path 2806" d="M3206.512,1577.8S2697.151,1470.457,2664,1522.551" transform="translate(-1693.512 -359)" fill="none" stroke="#2986ff" stroke-linecap="round" stroke-width="8" stroke-dasharray="10 10"/>
    <path id="Path_2807" data-name="Path 2807" d="M3034.116,1577.8s169.068,3.125,175.606-59.459" transform="translate(-2258 -350)" fill="none" stroke="#3b5998" stroke-linecap="round" stroke-width="8" stroke-dasharray="10 10"/>
    <path id="Path_2808" data-name="Path 2808" d="M3209.723,1577.8s-169.068,3.125-175.606-59.459" transform="translate(-2065.629 -350)" fill="none" stroke="#3b5998" stroke-linecap="round" stroke-width="8" stroke-dasharray="10 10"/>
  </g>
</svg>
