<svg xmlns="http://www.w3.org/2000/svg" xmlns:xlink="http://www.w3.org/1999/xlink" width="1961.659" height="781.039" viewBox="0 0 1961.659 781.039">
  <defs>
    <filter id="Path_2812" x="3.66" y="3.66" width="711.436" height="38" filterUnits="userSpaceOnUse">
      <feOffset dy="3" input="SourceAlpha"/>
      <feGaussianBlur stdDeviation="3" result="blur"/>
      <feFlood/>
      <feComposite operator="in" in2="blur"/>
      <feComposite in="SourceGraphic"/>
    </filter>
    <filter id="Path_2813" x="641.394" y="0" width="628.533" height="382.039" filterUnits="userSpaceOnUse">
      <feOffset dy="3" input="SourceAlpha"/>
      <feGaussianBlur stdDeviation="3" result="blur-2"/>
      <feFlood/>
      <feComposite operator="in" in2="blur-2"/>
      <feComposite in="SourceGraphic"/>
    </filter>
    <filter id="Path_2812-2" x="1250.223" y="3.66" width="711.437" height="38" filterUnits="userSpaceOnUse">
      <feOffset dy="3" input="SourceAlpha"/>
      <feGaussianBlur stdDeviation="3" result="blur-3"/>
      <feFlood/>
      <feComposite operator="in" in2="blur-3"/>
      <feComposite in="SourceGraphic"/>
    </filter>
    <filter id="Path_2813-2" x="695.393" y="0" width="628.533" height="382.039" filterUnits="userSpaceOnUse">
      <feOffset dy="3" input="SourceAlpha"/>
      <feGaussianBlur stdDeviation="3" result="blur-4"/>
      <feFlood/>
      <feComposite operator="in" in2="blur-4"/>
      <feComposite in="SourceGraphic"/>
    </filter>
    <filter id="Path_2814" x="0" y="399" width="628.533" height="382.039" filterUnits="userSpaceOnUse">
      <feOffset dy="3" input="SourceAlpha"/>
      <feGaussianBlur stdDeviation="3" result="blur-5"/>
      <feFlood/>
      <feComposite operator="in" in2="blur-5"/>
      <feComposite in="SourceGraphic"/>
    </filter>
  </defs>
  <g id="Group_592" data-name="Group 592" transform="translate(22.66 -832.84)">
    <g transform="matrix(1, 0, 0, 1, -22.66, 832.84)" filter="url(#Path_2812)">
      <path id="Path_2812-3" data-name="Path 2812" d="M-4594,3933.5h673.436" transform="translate(4616.66 -3913.84)" fill="none" stroke="#2986ff" stroke-linecap="round" stroke-width="20"/>
    </g>
    <g transform="matrix(1, 0, 0, 1, -22.66, 832.84)" filter="url(#Path_2813)">
      <path id="Path_2813-3" data-name="Path 2813" d="M-4594,3933.5h673.436" transform="translate(6609.32 -1089.85) rotate(30)" fill="none" stroke="#2986ff" stroke-linecap="round" stroke-width="20"/>
    </g>
    <circle id="Ellipse_108" data-name="Ellipse 108" cx="5" cy="5" r="5" transform="translate(638 848)" fill="#fff"/>
    <g transform="matrix(1, 0, 0, 1, -22.66, 832.84)" filter="url(#Path_2812-2)">
      <path id="Path_2812-4" data-name="Path 2812" d="M-3920.563,3933.5H-4594" transform="translate(5863.22 -3913.84)" fill="none" stroke="#2986ff" stroke-linecap="round" stroke-width="20"/>
    </g>
    <g transform="matrix(1, 0, 0, 1, -22.66, 832.84)" filter="url(#Path_2813-2)">
      <path id="Path_2813-4" data-name="Path 2813" d="M0,0H673.436" transform="translate(1301.27 19.66) rotate(150)" fill="none" stroke="#2986ff" stroke-linecap="round" stroke-width="20"/>
    </g>
    <g transform="matrix(1, 0, 0, 1, -22.66, 832.84)" filter="url(#Path_2814)">
      <path id="Path_2814-2" data-name="Path 2814" d="M0,0H673.436" transform="translate(605.87 418.66) rotate(150)" fill="none" stroke="#2986ff" stroke-linecap="round" stroke-width="20"/>
    </g>
    <ellipse id="Ellipse_108-2" data-name="Ellipse 108" cx="5" cy="5" rx="5" ry="5" transform="translate(1272 848)" fill="#fff"/>
  </g>
</svg>
