<svg xmlns="http://www.w3.org/2000/svg" width="175" height="175" viewBox="0 0 175 175">
  <g id="Group_433" data-name="Group 433" transform="translate(0.256)">
    <circle id="Ellipse_10" data-name="Ellipse 10" cx="87.5" cy="87.5" r="87.5" transform="translate(-0.256)" fill="#2986ff"/>
    <path id="Icon_ionic-md-business" data-name="Icon ionic-md-business" d="M51.483,23.766V4.5H3.375V91.229H97.332V23.766ZM22.618,81.585H13V71.941h9.622Zm0-19.266H13V52.675h9.622Zm0-19.266H13V33.41h9.622Zm0-19.288H13V14.122h9.622ZM41.861,81.585H32.24V71.941h9.622Zm0-19.266H32.24V52.675h9.622Zm0-19.266H32.24V33.41h9.622Zm0-19.288H32.24V14.122h9.622ZM87.71,81.585H51.483V71.941H61.1V62.319H51.483V52.675H61.1V43.031H51.483V33.41H87.71ZM79.218,43.054H69.6V52.7h9.622Zm0,19.266H69.6v9.644h9.622Z" transform="translate(37.305 39.515)" fill="#fff"/>
  </g>
</svg>
