<svg xmlns="http://www.w3.org/2000/svg" width="175" height="175" viewBox="0 0 175 175">
  <g id="Group_432" data-name="Group 432" transform="translate(0.125)">
    <circle id="Ellipse_104" data-name="Ellipse 104" cx="87.5" cy="87.5" r="87.5" transform="translate(-0.125)" fill="#2986ff"/>
    <path id="Icon_weather-stars" data-name="Icon weather-stars" d="M6.444,87.619a16.275,16.275,0,0,0,11.4-5.181,16.233,16.233,0,0,0,4.7-11.6A16.76,16.76,0,0,0,38.563,87.619,16.76,16.76,0,0,0,22.538,104.4a15.952,15.952,0,0,0-4.7-11.6A16.275,16.275,0,0,0,6.444,87.619ZM22.538,37.886A31.745,31.745,0,0,0,44.711,27.732,31.619,31.619,0,0,0,53.829,5.076a31.619,31.619,0,0,0,9.118,22.656A32.058,32.058,0,0,0,85.188,37.886a32.015,32.015,0,0,0-15.818,4.9,33.193,33.193,0,0,0-11.4,11.95,32.481,32.481,0,0,0-4.144,16.094,31.778,31.778,0,0,0-9.118-22.725A31.538,31.538,0,0,0,22.538,37.886Zm22.933,74.393a23.782,23.782,0,0,0,16.716-7.6,23.788,23.788,0,0,0,6.838-17.061A24.679,24.679,0,0,0,92.51,112.279a24.679,24.679,0,0,0-23.485,24.659,23.788,23.788,0,0,0-6.838-17.061A24.2,24.2,0,0,0,45.471,112.279ZM92.51,79.538a23.625,23.625,0,0,0,16.647-7.6,23.771,23.771,0,0,0,6.769-17.13,24.673,24.673,0,0,0,23.554,24.659,24.673,24.673,0,0,0-23.554,24.659A24.431,24.431,0,0,0,92.51,79.538Z" transform="translate(24.233 16.264)" fill="#fff"/>
  </g>
</svg>
