<svg xmlns="http://www.w3.org/2000/svg" width="111.787" height="99.366" viewBox="0 0 111.787 99.366">
  <path id="Icon_awesome-map-marked" data-name="Icon awesome-map-marked" d="M55.894,0A24.453,24.453,0,0,0,31.44,24.453c0,10.919,15.982,30.819,22.105,38.043a3.061,3.061,0,0,0,4.7,0c6.123-7.223,22.105-27.124,22.105-38.043A24.453,24.453,0,0,0,55.894,0ZM3.9,41.91A6.212,6.212,0,0,0,0,47.676V96.257a3.106,3.106,0,0,0,4.258,2.884l26.794-12.2V41.711A58.773,58.773,0,0,1,26.928,32.7ZM55.894,69.8a9.273,9.273,0,0,1-7.086-3.292c-3.816-4.5-7.874-9.63-11.546-14.889V86.944L74.525,99.364V51.624C70.853,56.881,66.8,62.011,62.979,66.513A9.278,9.278,0,0,1,55.894,69.8Zm51.636-38.526-26.794,12.2V99.366l27.147-10.858a6.21,6.21,0,0,0,3.9-5.766V34.161A3.106,3.106,0,0,0,107.529,31.277Z" fill="#fff"/>
</svg>
